<?xml version="1.0" encoding="utf-8"?>
<svg viewBox="398.07318115234375 51.005287170410156 144.9000244140625 214.80001831054688" width="144.9000244140625" height="214.80001831054688" xmlns="http://www.w3.org/2000/svg"><g transform="matrix(1, 0, 0, 1, 43.3731880187988, -1.294722080230713)"><g transform="matrix(1, 0, 0, 1, -5.684341886080802e-14, 0)">
		<g>
			<path d="M494.6,86.9c-2.2-4.6-16-16.6-16.4-17.4c-0.4-0.8-2.6-0.3-2.6-0.3s-3.4-5.4-3.8-5.6c-0.4-0.1-1.9-2.3-2.6-3.4&#10;&#9;&#9;&#9;&#9;c-0.7-1.1-1.6-1.8-3.7-1.8c-2,0-2.3-0.3-5-1.2c-2.7-0.9-2.3,3-2.3,3s-1.1,3.3-0.9,4.3c0.1,1.1,0,4.2-1.1,6.4&#10;&#9;&#9;&#9;&#9;c-1.2,4.6-6.4,10.9-6.4,10.9l-3.1-0.5c0,0-0.4-1.6-2-2.2c0.4-3.4-1.2-10.3-1.2-10.3s2.4-2.9,4.8-6.1c2.3-3.3-5.8-2.7-8-2.6&#10;&#9;&#9;&#9;&#9;c-2.2,0.1-4.9-5-6.9-6.4c-2-1.4-6.5,1.2-8.3,2c-1.8,0.8-3.9,2.4-4.2,3.8c-0.3,1.4-0.8,5.3-0.5,9.2c-4.2,0-6.5,1.6-6.5,1.6&#10;&#9;&#9;&#9;&#9;c-14.7,2.1-8.4,15.8-9.4,21.4c-1,5.6-5.3,4.3-8,9.1c-2.7,4.8,3,7.2,3,7.2s0.3,1.4-0.3,2.7c-0.6,1.3-1.9,4.3-1.9,4.3&#10;&#9;&#9;&#9;&#9;s-1.9,2.6-2.7,4c-0.8,1.4-0.8,4.3-1.9,9.1c-1.1,4.8,4.2,5.9,6.2,7.1c2.1,1.1,4.8,1,4.8,1s-0.3,2.7-3.4,5.3&#10;&#9;&#9;&#9;&#9;c-10.7,6.6-10.6,17.1-11.2,19.2c-0.6,2.1-3.7,12.2-5.1,17.8c-1.4,5.6-3.5,10.7-6.9,16.3c-3.4,5.6-5.6,15.4-5.6,15.4&#10;&#9;&#9;&#9;&#9;s0.2,0.8,3.5-0.6c-6.1,8.8-9.8,27.9-11.5,34.3c-1.8,6.4-4.3,6.2-6.6,8c-2.2,1.8-1,4.3-1,8.3s-1,4.8-1,4.8l2.1-0.3c0,0,0,0,0-0.5&#10;&#9;&#9;&#9;&#9;c0-0.5,1.6-3.7,3-1.4c1.4,2.2,5.4,3.8,10.3,3.8c4.8,0-0.8-2.9-1.1-5c-0.3-2.1-0.8-2.9-0.3-4.2c0.5-1.3,2.1-2.7,2.9-6.9&#10;&#9;&#9;&#9;&#9;c0.8-4.2,4.5-12.8,8.3-18.3c3.8-5.4,11.9-19.9,11.9-19.9l2.4,0.8c0,0,3.2-4.6,3.7-2.7c0.5,1.9,0,9.9,0,9.9s2.2-1.8,4.6-3.7&#10;&#9;&#9;&#9;&#9;c2.4-1.9,6.1-5.4,8.8-6.6c2.7-1.1,2.9,1.6,2.9,1.6s-0.3,10.7-1.6,15.1c-1.3,4.3-0.9,1.9-4.5,7c-0.6,0.9-0.8,2.6-4,7.2&#10;&#9;&#9;&#9;&#9;c-3.2,4.6-11.7,17-11.7,17l2.9,1.1c0,0-3.8,2.7-8,3c-4.2,0.3-1.6,4.3-1.6,4.3s6.6,0.8,11.9,0.8c5.3,0,11.4-2.7,11.4-2.7&#10;&#9;&#9;&#9;&#9;s0.2,2.4,0.6,2.2c0.5-0.2,7.4-0.6,7.4-0.6l1.4-5.3c0,0-1.1-1.4-0.6-3c0.5-1.6,0.6-2.1,3.8-5.6c3.2-3.5,10.1-15.4,10.1-15.4&#10;&#9;&#9;&#9;&#9;s1.3,1.4,3.5,4.5c2.2,3,9.3,17.9,9.3,17.9s1,1.1-3,2.6c-4.3,0.6-3.5,3.5-3.5,3.5s3.8,0.6,10.1,0.5c6.2-0.2,10.1-2.7,10.1-2.7&#10;&#9;&#9;&#9;&#9;l0.5,2.4c0,0,0,0,7.1-0.3c0.3-1.8-1.3-6.4-1.3-6.4l5-2.1c0,0-1.8-4.2-4.5-8c-2.7-3.8-9.6-21.8-12.5-25.8c-2.9-4-8.3-7.4-8.3-7.4&#10;&#9;&#9;&#9;&#9;s1.8-4.2,4.2-9.6c5.8-11.9,13.5-32,14.9-33.8c1.4-1.8,12.8-6.9,12.8-6.9l-4.6-22.4c-1.5-6.6-2-11.5-2.3-17.1&#10;&#9;&#9;&#9;&#9;c-0.3-5.6,1.1-23.1,1.1-23.1s10.2,1.5,13.4,1.6c3.3,0.1,10.3-1.9,13.2-5.3C499.6,96,496.8,91.5,494.6,86.9z M430.4,91.6l-2.5-0.9&#10;&#9;&#9;&#9;&#9;c0,0,0.3-1.7,0.2-2.8c-0.1-1-0.2-1.6,0.6-2.9c1-0.2,0.9-1.8,0.9-1.8c0.7,1.5,2.9,2.1,2.9,2.1s0.1,0.6,0.1,1&#10;&#9;&#9;&#9;&#9;C432.9,89.4,430.4,91.6,430.4,91.6z M461.9,78.1c1.7-3.1,1.3-8.5,1.3-8.5s2.4-0.6,3,0.6c0.6,1.3,1.9,1.7,4.6,3.5&#10;&#9;&#9;&#9;&#9;c-0.3,1.3,0.3,3,3.6,10.2C471.7,80.3,461.9,78.1,461.9,78.1z"/>
			<path class="st1" d="M391.2,180.4c0,0,9.9,12.5,13.6,14.8c-1.2,3.7-2.3,4.5-6.6,8c-4.3,3.5-6.3,7.5-9.4,12.3&#10;&#9;&#9;&#9;&#9;c-2.8,5.6-5,9.4-10.8,17.9c0,0-6.4,10.8-7.1,14.8c-0.7,4-1.9,5.6-3,7.1c-1,1.6-0.5,2.8,0,4.7c0.5,1.9,0.5,1.9,0.5,1.9&#10;&#9;&#9;&#9;&#9;s-1.6,1.6-4.2,0.7c-1.9-1.9-1.7-4-2.3-5.4c-0.5-1.4-2.1-3.8-4.7-3.8c3.5-2.4,7-4.3,7.7-9.4c0.7-5,5.2-25.2,12-35.3&#10;&#9;&#9;&#9;&#9;c2.3-2.3,7.1-8.3,9.9-13.6C389.6,190,390.8,183.9,391.2,180.4z" style="fill: rgb(255, 255, 255);"/>
			<path class="st1" d="M424.2,77.6c-5.1-3.3-8.2,1.3-8.7,2.6c-0.5,1.2-2.1,1.7-3.9,1.5c-0.6-0.7-2.6-0.2-3,0.8c0,0-0.7,3.5,4.6,4.5&#10;&#9;&#9;&#9;&#9;c-0.4,0.4,0.2,2.2,3.8,2.6c-1.9,0.7-5.4-1.7-5.4-1.7s-2-0.7-2.7-1c-0.3,3-0.7,7-2.3,9.6c-1.5,2.4-2.8,4.3-2.1,5.6&#10;&#9;&#9;&#9;&#9;c0.7,1.4,0.1,3.4-1,5c-1.1,1.6-1,3.5-1,3.5s1.9,0.5,4.6,0.1c2.7-0.4,2.6,0,4.5-0.2c1.9-0.2,2.1,0.9,2.6,3&#10;&#9;&#9;&#9;&#9;c4.6-2.3,9.6-7.1,9.6-7.1l-2-2.3c0,0,1-0.4,4.5-0.1c-2.7-8.8,1.5-12.1,1.5-12.1s-2.4-0.9-3.3-1.2c-0.9-0.3,2,0.2,2.7-0.2&#10;&#9;&#9;&#9;&#9;c0.5-0.2,0.7-1.3,0.6-2.3c0-0.1-0.3-0.4-1.1-0.3c-2.1,0.1-2.6-1.1-2.2-1.1c2.2-0.1,3.2,0,3.2,0s0.4-2.2,0.9-2.3&#10;&#9;&#9;&#9;&#9;C429,84.6,429,84,429,84c0-0.4,0.4-1-1.1-1.8c-0.4-0.2-1.5-1-2.8-1c0,0-0.8,0.1-0.9-0.1c0-0.4-0.3-0.5-1.5-0.5&#10;&#9;&#9;&#9;&#9;c0,0,0.1-0.7,0.7-0.8c0.6,0,0.9-0.5,1.6-0.3c0.3,0.1,0.3-0.1,0.4-0.1C425.5,79.4,424.7,78.9,424.2,77.6z" style="fill: rgb(255, 255, 255);"/>
			<path class="st1" d="M403.5,101.6c0,0,1.3,2,0.1,4c-1.3,2-2,4.2-1.8,5.7c1.9,0.3,3.7,0.1,5.8-0.1c2.1-0.1,5.6-0.9,5.9,2.6&#10;&#9;&#9;&#9;&#9;c-0.1,0.2-0.5,0.5-0.3,0.5c0.2,0,1.7,0.8,1.3,2.2c-0.5,0.6-0.5,0.6-0.5,0.6s0.8,2-0.2,2.4c-1.1,0.4-1.1,0.4-1.1,0.4&#10;&#9;&#9;&#9;&#9;s-0.3,1.1-1.4,1.5c-1.1,0.4-1.9,0.7-1.9,0.7s0.2,0.4-0.6,0.8c-0.7,0.3-1,0.6-1.9,0.4c-0.9-0.2-3-0.8-4.3-0.7&#10;&#9;&#9;&#9;&#9;c-1.3,0.1,0.3,1.1-2.3,1.2c-2.6,0.1-7.1-1.2-4.5-5.2c2.6-4,3.7-6.3,4-7.7c0.3-1.4,0.2-2.7,0.2-3.2c0.5-1.1,0.4-1.3,1.1-2.4&#10;&#9;&#9;&#9;&#9;C401.6,104.2,401.7,100.9,403.5,101.6z" style="fill: rgb(255, 255, 255);"/>
			<path class="st1" d="M471.7,73.1c0.3,0.1,3.1-1.8,3.3-3.5c-3-3.8-4.4-5.7-4.9-6.6c-0.5-0.9-1.9-3.4-2.8-3.6&#10;&#9;&#9;&#9;&#9;c-0.9-0.2-3.1,0-4.4-0.4c-1.2-0.4-2.6-0.9-3-0.9c-0.4,0-1-0.2-1.2,0.9c-0.2,1-0.3,3.1-0.5,3.4c-0.2,0.4-0.5,2.2-0.5,2.2l0.5,1.9&#10;&#9;&#9;&#9;&#9;c0,0,2,1.9,3.2,2.3c1.2,0.4,1.1,0.1,1.4-0.2c0.3-0.3,1.6-3.4,1.6-3.4s1.2-0.5,1.5-0.5C466.5,64.7,467.5,71.5,471.7,73.1z" style="fill: rgb(255, 255, 255);"/>
			<path class="st1" d="M442.4,69.3c0,0,2.9,6.7,0.7,11.6c-0.5,1.1-2.6,0.8-3.7,0.6c-1.1-0.2-3-0.3-3.9-0.6c-0.1,0-3.7-1.7,1.6-4.5&#10;&#9;&#9;&#9;&#9;c2.4-0.7,3.4-1.2,3.4-1.2s1-1-0.9-0.6c-1.9,0.4-3.4,0.9-4.6,1.8c-1.2,0.9-2.1,0.3-1.3-0.9c0.7-1.2,1.9-1.8,3-2.1&#10;&#9;&#9;&#9;&#9;c1-0.3,1.2-0.1,1.4-0.9c0.3-0.7-0.4-0.2-1.7-0.3c-1.3-0.1-2.1-0.9-1.3-1.5c0.7-0.6,1-0.9,2.2-0.7c1.2,0.2,1.9,0.2,2.5,0.2&#10;&#9;&#9;&#9;&#9;C440.3,70.1,442.4,69.3,442.4,69.3z" style="fill: rgb(255, 255, 255);"/>
			<path class="st2" d="M427.6,92c0,0-10-2.6-12.9,0.6C413.3,91.8,421.3,87.9,427.6,92z" style="fill: rgb(35, 31, 32);"/>
		</g>
		<path class="st2" d="M426.8,84.1c0,0,1.2-0.8,1.3-0.3C428.1,84.3,427.8,84.5,426.8,84.1z" style="fill: rgb(35, 31, 32);"/>
	</g></g></svg>