<?xml version="1.0" encoding="utf-8"?>
<svg viewBox="102.90980529785156 69.25763702392578 190.90003967285156 219.4000244140625" width="190.90003967285156" height="219.4000244140625" xmlns="http://www.w3.org/2000/svg"><g transform="matrix(1, 0, 0, 1, 43.3731880187988, -1.294722080230713)"><g transform="matrix(1, 0, 0, 1, -38.46333694458011, 22.952356338500977)">
		<path d="M285.9,255c-0.9-2.6-9.4-9.4-11-11.4c-1.6-2-7.1-7.2-9-13.3c-1.9-6.1-9-17.5-9-17.5s-0.6-2.6-1.4-3.8&#10;&#9;&#9;&#9;c-0.9-1.2-5.9-7.7-10-16.2c-4.1-8.5-7.7-23.6-8.8-31.1c-1.2-7.5-9.1-16.7-9.1-16.7s0.4-3.1,1.6-3.9c1.4-0.9,0.1-3.6-0.5-4.5&#10;&#9;&#9;&#9;c-0.6-0.9-0.3-5.4-0.3-5.4s5.4-10.6,4.6-17.2c-0.7-6.7-5.2-14.2-4.8-15.9c0.4-1.7,2.6-4.8,6.8-8.5c4.2-3.8,5.2-8.5,0.4-15.6&#10;&#9;&#9;&#9;c-4.8-7.1-13-6.8-15.6-6.8c-2.6,0-4.2,1.2-4.6,3c-1.7,1.4-2.9,5.6-2.9,5.6S211,66,211,64.4c0-1.6,1.2-1.4,1.7-2.8&#10;&#9;&#9;&#9;c0.6-1.3-0.3-3.2-0.3-3.2s0.9-2.2,0.7-3.8c-0.1-1.6-1.7-2.6-3-2.5c-0.1-1.3-2.5-1.3-2.5-1.3s0.4-0.9,0.4-2c0-1.2-1.6-0.1-2.2,0.7&#10;&#9;&#9;&#9;c-0.6,0.9-2.5,2.6-2.5,2.6s0,0-1.3,1.3c-1.3,1.3,0.7,6.7,2.2,7.4c0.3,2,0.1,11.9-0.7,15.3c-0.6,0.3-0.7,3-0.7,3.9&#10;&#9;&#9;&#9;c0,0.9-2.2,9.7-2.2,9.7s-3.8,1.2-6.2-0.3c-2.5-1.4-3.5-4.2-3.5-4.2s1-0.1,3-0.3c2-0.1,1.7-2.6,1.7-2.6l0.3-2.6c0,0,1.7-1.3,1.7-2&#10;&#9;&#9;&#9;c0-0.7,1-1.2,2.3-1.7c0.7-0.3-0.3-5.8-0.3-5.8s0.9-1.2,0.6-2.2c-0.3-1-0.6-4.6-0.3-6.4c0.1-2-0.4-9.3-13.5-8.8&#10;&#9;&#9;&#9;c-13,0.4-11.7,14.9-10.3,17.4c1.4,2.5,0.9,8.1,0.9,8.1l-2.6,0.3l-0.6,2l-1.4,0.7c0,0-0.7,1.4-1,2.9c-0.3,1.4-1.9,3.5-5.1,6.5&#10;&#9;&#9;&#9;c-5.2,5.8-5.9,18-5.6,21.4c0.3,3.5,5.9,13.6,6.5,17.7c0.6,4.1-0.4,7.5-0.7,9.7c-0.3,2.2-1.6,5.2-1.6,8.7c0,3.5-3.5,6.8-5.6,11.4&#10;&#9;&#9;&#9;c-2.2,4.6-1.3,8.8-2.8,13c-1.4,4.2-4.3,12.5-5.5,15.1c-1.2,2.6-7.7,15.6-13.8,23.7c-6.1,8.1-12.6,22.6-14.9,27.7&#10;&#9;&#9;&#9;c-2.3,5.1-5.5,11.2-5.5,11.2l1.3,2c0,0-9.1,4.7-15.9,8.7c-4.2,2.5,1.5,5.9,6.5,6c0,0,6.1-0.4,8.6-3.5c0.4,1.7,0.4,1.5,0.4,1.5&#10;&#9;&#9;&#9;l5.2-0.4c0,0,2.9-5.9,3.1-7.6c0.1-0.5,2.9,1.2,2.9,1.2s1-1.3,3.8-4.5c2.8-3.2,8.7-10.7,12.5-18.2c3.8-7.5,19.3-29.7,19.3-29.7&#10;&#9;&#9;&#9;s1,1,2.3,3c1.3,2,10.3,23.3,11.9,29.4c1.6,6.1,0.9,10.4,1.2,13.5c0.3,3,0.9,7.4,0.9,7.4s-1,1.4-3.6,2.7c-2.2,1.1-0.1,3,4.7,2.8&#10;&#9;&#9;&#9;c0,0,3.1-0.2,5.7-2.6c0.7-0.9,0.7-0.9,0.7-0.9l1.2-1.7l1,0.6c3.4,0.5,5.2,0.7,5.2,0.7l0.3-1.9c0,0,4.8,1.3,10.1,1.3&#10;&#9;&#9;&#9;c5.3,0.1,8.6-0.9,8.6-0.9s1-1,0.7-2.2c-0.2-0.9-3.2-2-4.6-2.6c-1.4-0.6-6.1-2.9-6.1-3.6c0-0.7,0.7-5.1,2.5-7.5&#10;&#9;&#9;&#9;c1.7-2.5,3.6-10,4.8-14.8c1.2-4.8,6.2-19.8,6.2-19.8s1.6-0.7,2.2-0.3c0.6,0.4,1.3,2.6,1.4,3.8c0.1,1.2,1.7,0.4,3.6,0.1&#10;&#9;&#9;&#9;c1.9-0.3,3-0.3,5.2,0.7c2.2,1,10.3,3.2,13.5,2.9c1.4,9.6,12.7,18.4,16.7,22.3c3.9,3.9,5.9,8.1,6.9,11c1.7,4.9,5.1,5.7,5.1,5.7&#10;&#9;&#9;&#9;s2,0.6,4,4.3c2,3.8,7.8,4.9,10,3.2C288.9,260.9,286.8,257.6,285.9,255z M200.3,204.4c-0.3,1.3-0.9,2.9-1.4,5.5&#10;&#9;&#9;&#9;c-0.6,2.6-1.4,5.5-3,11c-1.6,5.5-6.4,18.7-6.4,18.7s-3.5-10.6-3.3-18.5c0.1-8-5.2-15.6-6.4-17.1c-1.2-1.4,0.9-3.8,5.1-5.5&#10;&#9;&#9;&#9;c4.2-1.7,11.4-5.8,11.4-5.8c0.4,4.5,4.6,9.8,4.6,9.8S200.6,203.1,200.3,204.4z"/>
		<path class="st1" d="M191.8,165.1c0,0,10.2,10.4,8.3,22.9c-2.8,2.8-11.4,7-15.7,9.5c-4.4,2.5-7.2,4.2-5.5,6.6&#10;&#9;&#9;&#9;c1.7,2.5,5.3,9.8,5.7,16.3c0.4,6.4,1.9,17.8,3.6,20.2c-2.6,1.9-7,5.3-7,5.3s-0.8-9.3-3.8-15.9c-3-6.6-8.3-19.3-9.3-21.6&#10;&#9;&#9;&#9;c-0.9-2.3-7.2-4.9-4.9-12.5c0.9-3.2,6.6-13.1,12.1-17.4C180.8,174.2,188.6,167.2,191.8,165.1z" style="fill: rgb(255, 255, 255);"/>
		<path class="st1" d="M244.9,216c0,0,5.6-0.1,11-3.6c1.8,3.1,6,10.3,8.3,16.2c2.3,5.9,4.6,10.4,7.6,13c1.2,1.2,1.6,1.3,1.6,1.3&#10;&#9;&#9;&#9;l0.5,6.4c0,0-0.9,1.5-1.8,1.6c-0.9,0.1-1.7-1.9-3.8-2.1c-0.9-2.2-2.6-6.7-7.1-11C256.7,233.3,248.2,226.8,244.9,216z" style="fill: rgb(255, 255, 255);"/>
		<path class="st1" d="M274.9,244.5l0.6,4.6c0,0,2-0.4,2.9-1.1C276.9,246.6,274.9,244.5,274.9,244.5z" style="fill: rgb(255, 255, 255);"/>
		<path class="st1" d="M274.9,250.7c-0.1-0.1-1.1,2.5-0.4,3.8c2.4,1.4,3.7,3.3,4.2,4c0.4,0.7,5.1,0.1,5.1,0.1l0.6-4.6&#10;&#9;&#9;&#9;c0,0-3.9-4.4-4.9-4.9C276.9,249.7,274.9,250.7,274.9,250.7z" style="fill: rgb(255, 255, 255);"/>
		<path class="st1" d="M284.2,262.6l0.3-2.6l2.1-0.1c0,0,0.9,1.4-0.1,2.1C285.4,262.7,284.2,262.6,284.2,262.6z" style="fill: rgb(255, 255, 255);"/>
		<path class="st1" d="M181,247l0.3,4.1l5.8,1.9c0,0,0.6-2.3,2.1-4c-0.1-2-0.6-4.9,0.4-6.7c-0.8-0.7-0.8-0.7-0.8-0.7&#10;&#9;&#9;&#9;S182.1,246.8,181,247z" style="fill: rgb(255, 255, 255);"/>
		<path class="st1" d="M181.3,252.7c0,0-0.1,5,0.8,6.9c0.6,0.6,5.8,0,5.8,0v-5.5L181.3,252.7z" style="fill: rgb(255, 255, 255);"/>
		<path class="st1" d="M193.7,123.4c0,0-3.8-2.8-5.4-3.7c-1.6-1-3.7-2.1-3.6-4.6c0.1-2.5-0.1-2.9-0.4-2.9c-0.3,0-0.9-0.2-1.1,1.2&#10;&#9;&#9;&#9;c-0.1,0.6-0.4,1.4-0.4,1.4s-1.2,0.2-3.6-0.5c-2.2-0.6-5.3-1.1-6.6-1.4c-1.5-0.3-1.9,0.8-0.7,1.3c1.2,0.5,5.1,1.5,5.1,1.5&#10;&#9;&#9;&#9;s-4.3-0.1-4.7-0.1c-0.4,0-1.4-0.1-1.4,0.8c0,0.8,5,1.4,5,1.4s-4.8,0-4.7,0.9c0,0.9,2.4,0.8,2.4,0.8l2,0.2c0,0-3.4,0.6-3.1,1.2&#10;&#9;&#9;&#9;c0.3,0.5,2.6,0.4,3.9,0.2c1.3-0.1,5.2-0.2,5.2-0.2s6,5.4,7.9,7.3c1.9,1.9,1.9,1.9,1.9,1.9S193.7,127.2,193.7,123.4z" style="fill: rgb(255, 255, 255);"/>
		<path class="st1" d="M219.6,143.2c0,0,0.8-5,1.3-5.8c0.5-0.8,2.4-1.4,3.6-2.4c1.1-0.9,1.4-1.1,2.1-2.3c0.5-0.7,0.2,1.5,0.2,1.5&#10;&#9;&#9;&#9;l-0.1,1.1c0,0,0.1,0.2,0.6,1.6c0.3,0.8,0.8,1.7,0.8,1.7s0.9,1.3-0.3,2.1c-1.2,0.8-1.2,1.8-1.2,1.8s-0.1,1.3-0.6,1.6&#10;&#9;&#9;&#9;C225.4,144.5,222.5,142.4,219.6,143.2z" style="fill: rgb(255, 255, 255);"/>
		<path class="st1" d="M213.4,92.8c0.1,1.2-0.1,7.9-0.1,7.9s6.3,1,7.9,1.8c1.6,0.9,6.4,0,6.4,0s0.1-1.4,0.1-4&#10;&#9;&#9;&#9;c-1.1-2.2-7.6-5.6-7.6-5.6s-0.2-0.8,0.5-1.9c0.7-1.2-0.6-3.2-2.2-3.5c0.4-1.3,1.8-1.9,4-4.6c2.2-2.7-0.9-3.7-4.2-1.9&#10;&#9;&#9;&#9;c-0.9-2.6,0.6-8.2,2.5-11.5c-2.3-0.4-4,0.5-5.1,0.6c0,0-2.6,3.5-2.4,5.9c0.4,0.6,0.8,1.4,0.8,1.4c0.1,0.5-0.4,0.7-0.9,0.4&#10;&#9;&#9;&#9;c-0.6-0.3-2.1-0.6-2.1-0.6s-1.6,1-3.1,1.5c-0.9,0.3,0.2,1.3,0.2,1.3s1.6,0.4,1.6,0.8c0,0.3-1.8,1.5-1.8,1.5l-0.4,1&#10;&#9;&#9;&#9;c0,0,2.1,0.2,2.1,0.7c0,0.4-0.9,0.4-2.3,0.7c0.3,1.7-0.6,3-0.6,3s-0.9,2.9,3.9,2.1c2.5-0.4,4.9-1.7,4.9-1.7s-0.9,2.2-1.5,2.5&#10;&#9;&#9;&#9;C213.2,91.1,213.4,92.7,213.4,92.8z" style="fill: rgb(255, 255, 255);"/>
		<path class="st1" d="M209.5,62.5c0.3,0,0.9,0.9,0.8,2.3c-0.1,1.4,0.6,7.8,0.8,11.4c-2.4,1.1-6.8,0.3-6.8,0.3&#10;&#9;&#9;&#9;c0.6-1.3,0.8-7.6,0.9-9.9c0.1-2.4-0.3-5.8-0.3-5.8s-1.8-2.1-2.2-4.1c-0.3-1.6-0.3-2.5,0.1-2.9c0.4-0.4,2.8-3.1,3.3-3.7&#10;&#9;&#9;&#9;c0.6-0.6,0.9-0.8,1.1-0.4c0.2,0.4-0.5,1.9,0.1,1.7c0.6-0.1,1.5,0.4,1.5,0.8c0,0.4-2.5,3.3-3.1,4.4c-0.6,1.1,0.4,1.3,0.8,1&#10;&#9;&#9;&#9;c0.3-0.3,3.8-4.4,4.3-4.4c0.5-0.1,1.9,0.4,1.9,1.7c0,1.2-0.9,2-0.9,2s-0.9,2.1-2,3.3c0,0-1,0.4-1.4,0.3c-0.4-0.2-0.7-0.2,0.3-1.3&#10;&#9;&#9;&#9;c1-1.1,1.4-2.4,2.1-3c0.6-0.6,1.2-1.4,0.8-1.6c-0.3-0.2-0.5,0-1,0.3c-0.5,0.3-2.5,3.3-3.1,4c-0.6,0.7-1.3,1-1.3,1&#10;&#9;&#9;&#9;S207.4,62.5,209.5,62.5z" style="fill: rgb(255, 255, 255);"/>
		<path class="st1" d="M177.3,79.2c0,0,0.9-1.7,1-2.8c0.5-2.6,0.8-5.3,0.6-6.8c-0.2-1.5,1.4-4.1,3.1-4c1.7,0.1,2.6,2.3,2.9,3&#10;&#9;&#9;&#9;c0.3,0.7,1.4,0.8,1.4,0.8s2.3-2.8,5-3.8c-1-1.2-0.9-3.9-0.6-4.2c0.3-0.3,7.2-1.6,8.5,0.7c0.1,3.6,0.6,6.1,0.7,6.7&#10;&#9;&#9;&#9;c0.1,0.6-3.3-0.2-4.9,0c-1.6,0.2-2.7,0.7-2.7,0.7l0.4,1c0,0,1.9,2.3,3.2,1.5c1.3-0.8,1.8-2,3-1.9c0.4,1.9,1.2,5,0.6,5.5&#10;&#9;&#9;&#9;c-0.6,0.5-3,0.2-3,0.2s0.2,0.3,0.4,1.1c0.2,0.8-0.3,1.6-0.7,1.8c-0.4,0.2-1.3,0.2-2.5,0.3c-1.2,0.1-1.6,0.1-1.6,0.7&#10;&#9;&#9;&#9;c0,0.6-0.3,1.7,0.7,2.1c1,0.4,2.6,1.3,1.6,2c-1,0.7-1.9,0.8-2.9-0.3c-1-1.1-4.8-4.3-6.7-4.5c-1.9-0.2-2.1,0.7-1.5,1.1&#10;&#9;&#9;&#9;c0.6,0.4,2.4,3.2,2.3,3.7c-0.1,0.5-2-0.3-2-0.3S180,79.9,177.3,79.2z" style="fill: rgb(255, 255, 255);"/>
		<path class="st1" d="M192.8,80.2c-0.6-0.1,1.7-0.1,2.2,0.1c0.5,0.2,0.1,0.9-0.4,0.9C192.4,81.1,194.2,80.3,192.8,80.2z" style="fill: rgb(255, 255, 255);"/>
		<path class="st1" d="M219.8,136.6c0,0-1.9,6.6-1.9,9.1c-4.5-0.1-6.1-0.6-6.1-0.6l0.7-2C212.4,143.1,215.4,138.4,219.8,136.6z" style="fill: rgb(255, 255, 255);"/>
		<path class="st1" d="M188.2,95.4c0,0-11.7-10.9-14.1-12.2c0.8-2,1.3-3.5,1.3-3.5s3.4,0.9,6,3.1c2.6,2.2,7.1,5,7.4,4.9&#10;&#9;&#9;&#9;C189,87.6,188.2,95.4,188.2,95.4z" style="fill: rgb(255, 255, 255);"/>
		<path class="st1" d="M180.1,72.9c0,0,1.8,2.7,3,3.3C181.6,76.7,179.6,76.6,180.1,72.9z" style="fill: rgb(255, 255, 255);"/>
	</g></g></svg>